<svg class="icon" viewBox="0 0 1024 1024" xmlns="http://www.w3.org/2000/svg" width="48" height="48"><defs><style/></defs><path d="M770.916 512.201v.013c0 14.355-6.016 27.304-15.664 36.465L337.948 943.457a50.1 50.1 0 01-34.538 13.738c-27.774 0-50.288-22.514-50.288-50.287 0-14.387 6.04-27.362 15.725-36.528L647.642 512.1 268.87 153.54c-9.686-9.199-15.713-22.173-15.713-36.553 0-13.38 5.216-25.54 13.725-34.56 19.081-20.086 50.957-20.99 71.065-1.987L755.23 475.601c9.67 9.181 15.686 22.13 15.686 36.485v.12z"/></svg>