<svg class="icon" viewBox="0 0 1144 1024" xmlns="http://www.w3.org/2000/svg" width="53.625" height="48"><defs><style/></defs><path d="M564.48 927.208c0-25.479 20.353-48.245 48.395-48.245h432.547c25.48 0 48.396 20.354 48.396 48.245v48.396h50.808l-2.563 48.396H516.234l-2.563-45.833 48.396-2.563s2.412-20.353 2.412-48.396zM35.291 685.531L569.606 405.56 618 489.536 109.017 812.777c-34.526 19.901-78.55 8.594-99.204-25.479-20.354-38.144-7.69-81.413 25.48-101.767zM1042.86 548.184L750.373 718.7c-22.916 12.664-53.37 5.126-66.186-17.79-12.815-22.917-5.126-53.372 17.79-66.187L994.615 466.77c22.916-12.664 53.37-5.126 66.186 17.79 12.664 22.917 4.975 50.809-17.941 63.624zM508.545 301.23l292.636-170.516L969.134 423.5 676.498 591.453 508.545 301.23zm269.72-211.072L485.63 258.11c-22.916 12.815-53.371 5.126-66.186-17.79-12.664-22.917-5.126-53.522 17.79-66.187L729.87 6.181c22.917-12.664 53.371-5.126 66.186 17.79 12.816 22.917 5.126 53.372-17.79 66.187z"/></svg>