<svg class="icon" viewBox="0 0 1024 1024" xmlns="http://www.w3.org/2000/svg" width="128" height="128"><defs><style/></defs><path d="M896 740.48V576c0-17.6-14.4-32-32-32H160a32 32 0 00-32 32v164.48A127.808 127.808 0 00160 992a127.808 127.808 0 1032-251.52V608h640v132.48A127.808 127.808 0 00864 992a127.808 127.808 0 1032-251.52zM224 864a64 64 0 11-128 0 64 64 0 01128 0zm640 64a64 64 0 110-128 64 64 0 110 128zM311.744 324.736h2.304c32.128 0 58.24 27.648 58.24 61.632 0 11.264-5.056 23.488-5.056 23.616a29.12 29.12 0 008.896 33.792l.512.384 54.976 32.576.576.32A28.352 28.352 0 00464 469.952c6.464-7.36 28.864-28.544 46.848-28.544s40.128 21.056 47.104 29.12A28.544 28.544 0 00579.136 480a25.728 25.728 0 0010.624-2.24l.64-.256 56.896-33.344.64-.384a28.992 28.992 0 008.896-33.728c0-.128-5.056-12.352-5.056-23.616 0-33.984 26.112-61.632 58.24-61.632h1.92c9.344.192 17.024-8.512 19.456-22.08.128-1.088 4.608-26.496 4.608-46.528s-4.48-45.44-4.672-46.528c-2.432-13.568-10.048-22.272-19.456-22.016h-1.92c-32.128 0-58.24-27.712-58.24-61.696 0-11.2 5.056-23.488 5.056-23.616a28.8 28.8 0 00-8.896-33.728l-.576-.384-56-32.96-.576-.256a28.48 28.48 0 00-31.744 6.72c-6.848 7.488-28.416 26.88-45.888 26.88-17.472 0-39.232-19.84-46.08-27.392A28.416 28.416 0 00446.016 32a25.472 25.472 0 00-10.624 2.24l-.64.256-57.984 33.728-.576.448a28.8 28.8 0 00-8.96 33.664c0 .128 5.056 12.416 5.056 23.616 0 33.984-26.112 61.696-58.24 61.696h-1.92c-9.408-.256-17.024 8.448-19.456 22.016A318.336 318.336 0 00288 256.192c0 20.032 4.48 45.44 4.672 46.528 2.432 13.376 9.92 22.016 19.072 22.016zm43.136-101.76c36.224-1.984 65.152-33.92 65.152-72.96 0-12.992-4.736-25.472-5.76-28.096l43.968-25.728h.128c.768 0 1.408.256 1.6.448.768.768 6.912 7.552 15.872 14.272 13.12 9.984 25.6 15.04 37.056 15.04 11.328 0 23.68-4.992 36.8-14.72 8.96-6.592 15.04-13.248 15.808-13.952a2.944 2.944 0 011.6-.512h.128l42.496 25.088c-1.024 2.56-5.76 15.04-5.76 28.096 0 38.976 28.864 70.912 65.088 72.96.576 3.072 3.392 20.288 3.392 33.216s-2.816 30.144-3.392 33.216c-36.16 2.048-65.024 33.984-65.024 72.896 0 13.056 4.736 25.536 5.76 28.096l-43.136 25.408h-.128a2.368 2.368 0 01-1.344-.384c-.832-.832-7.04-8-16.128-15.104-13.44-10.624-26.176-16-38.016-16-11.712 0-24.384 5.248-37.76 15.68-8.96 6.976-15.168 14.016-15.936 14.848-.192.192-.768.384-1.344.384h-.128l-41.664-24.704c1.088-2.56 5.824-15.04 5.824-28.16 0-38.912-28.864-70.848-65.088-72.896-.576-3.136-3.392-20.352-3.392-33.28s2.816-30.08 3.328-33.152z"/><path d="M448.768 256a64.384 63.232 90 10126.464 0 64.384 63.232 90 10-126.464 0z"/></svg>