<svg class="icon" viewBox="0 0 1024 1024" xmlns="http://www.w3.org/2000/svg" width="64" height="64"><defs><style/></defs><path d="M276.233 512.018c0-139.853 113.667-253.194 253.883-253.194 140.253 0 253.92 113.341 253.92 253.194 0 139.817-113.667 253.158-253.92 253.158-140.216 0-253.883-113.34-253.883-253.158zm608.993-180.873c-66.082-128.719-200.132-216.998-355.11-216.998-220.334 0-398.995 178.117-398.995 397.871 0 219.718 178.661 397.835 398.995 397.835 154.978 0 289.028-88.279 355.11-216.998h80.19C894.33 862.74 726.26 982.21 530.117 982.21c-260.41 0-471.533-210.505-471.533-470.19 0-259.687 211.122-470.228 471.533-470.228 196.143 0 364.214 119.47 435.3 289.354h-80.19z"/></svg>