<svg class="icon" viewBox="0 0 1024 1024" xmlns="http://www.w3.org/2000/svg" width="48" height="48"><defs><style/></defs><path d="M495.74 713.259l1.446 1.445 2.168 2.168c.722.723 1.445.723 2.168.723.722.723 1.445.723 2.167 1.445.723 0 1.446.723 2.168.723.723 0 1.446.723 2.891.723s3.613.722 5.059.722h.722c1.446 0 2.89 0 4.336-.722 1.446 0 2.168-.723 3.613-1.446h1.446c1.445-.722 2.89-1.445 3.613-2.168h.723c1.445-.722 2.89-2.168 3.613-2.89l108.398-108.398c10.117-10.118 10.117-26.016 0-35.41-10.117-10.118-26.016-10.118-35.41 0l-65.039 65.038v-122.85c0-13.731-11.562-25.294-25.293-25.294s-25.293 11.563-25.293 25.293v123.574l-65.038-65.039c-10.118-10.117-26.016-10.117-35.41 0-10.118 10.117-10.118 26.016 0 35.41L495.74 713.26zm-7.948-302.792a27.46 27.46 0 1054.92 0 27.46 27.46 0 10-54.92 0zm0-96.113a27.46 27.46 0 1054.92 0 27.46 27.46 0 10-54.92 0zm0-96.113a27.46 27.46 0 1054.92 0 27.46 27.46 0 10-54.92 0z"/><path d="M765.29 677.849c-13.73 0-25.293 11.562-25.293 25.293v88.164h-449.49v-88.164c0-13.73-11.563-25.293-25.293-25.293s-25.293 11.562-25.293 25.293v113.456c0 13.73 11.562 25.293 25.293 25.293h499.353c13.73 0 25.293-11.562 25.293-25.293V703.142c.723-13.73-10.84-25.293-24.57-25.293z"/></svg>