<svg class="icon" viewBox="0 0 1070 1024" xmlns="http://www.w3.org/2000/svg" width="50.156" height="48"><defs><style/></defs><path d="M683.577 410.045a75.84 75.84 0 00107.188 0l181.512-181.512a75.84 75.84 0 10-107.694-106.682L683.577 303.362a75.84 75.84 0 000 106.683zM57.121 799.117l332.133-332.132L614.13 691.862 282 1023.995 57.12 799.117z"/><path d="M1025.365 847.392L438.36 196.174a1415.692 1415.692 0 01280.61-159.77A680.038 680.038 0 000 221.96l220.949 228.028a505.604 505.604 0 01104.154-151.682l587.512 652.23a75.84 75.84 0 00112.75-101.121z"/></svg>