<svg class="icon" viewBox="0 0 1117 1024" xmlns="http://www.w3.org/2000/svg" width="69.813" height="64"><defs><style/></defs><path d="M574.092 967.82c-30.255 0-54.738-24.018-54.738-53.62V643.77c0-29.603 24.53-53.62 54.738-53.62h471.598c30.255 0 54.738 24.017 54.738 53.62V914.2c0 29.602-24.53 53.62-54.738 53.62H574.092zm26.717-74.613h417.978V664.576H600.809v228.631z"/><path d="M771.91 309.9h76.195v280.9H771.91z"/><path d="M95.279 1023.348c-52.364 0-95.046-41.797-95.046-93.09v-52.504c0-51.246 42.682-93.09 95.046-93.09h21.27v-478.21l-52.828-.465a38.54 38.54 0 01-27.136-11.125 36.91 36.91 0 01-11.171-26.577 38.028 38.028 0 0138.307-37.097l52.363.42V82.99c0-45.662 37.888-82.758 84.573-82.758h89.787c5.26 0 10.705.605 16.43 1.675 3.957 0 8.1.233 12.707 1.955l770.141 236.73c18.153 5.586 29.324 22.947 26.531 41.612a38.26 38.26 0 01-37.702 31.744l-158.58-1.07-81.036-.838-463.5-3.677v476.3h15.547c52.363 0 95.046 41.844 95.046 93.09v52.55c0 51.2-42.683 93.09-95.046 93.09H95.279zm0-163.84c-10.287 0-18.619 8.146-18.619 18.246v52.55c0 10.054 8.332 18.2 18.619 18.2h295.703c10.286 0 18.618-8.146 18.618-18.2v-52.596a18.432 18.432 0 00-18.618-18.153H95.279zm97.698-75.03h106.031V307.525l-106.03-.652V784.43zm182.459-551.146l433.477 3.212.885-3.863L375.436 99.095v134.237zM201.076 75.078a8.145 8.145 0 00-8.099 7.913v148.852l106.031.838V82.99c0-4.283-3.724-7.913-8.145-7.913h-89.787z"/></svg>