<svg class="icon" viewBox="0 0 1045 1024" xmlns="http://www.w3.org/2000/svg" width="65.313" height="64"><defs><style/></defs><path d="M772.52 844.515a519.032 519.032 0 00-272.575 89.743S376.717 1024 259.851 1024C129.925 1024 0 934.258 0 934.258v-83.38s129.925 89.742 259.85 89.742c116.867 0 240.095-121.889 240.095-121.889s129.926-96.104 272.576-96.104c129.925 0 272.575 89.742 272.575 89.742v121.889s-149.347-89.743-272.575-89.743zm-17.747-267.887a315.438 315.438 0 0025.115-118.206v-4.018c127.916 3.014 265.543 89.408 265.543 89.408V665.7s-149.347-89.742-272.576-89.742h-17.747zm-14.734-236.41c-16.073-36.166-36.834-75.344-56.926-114.188a368.345 368.345 0 0183.045-10.046c129.926 0 271.906 89.743 271.906 89.743v121.888s-142.65-89.742-267.887-89.742H736.69zM530.417 733.341c-136.957 0-239.424-129.925-239.424-267.887S520.037 63.623 522.716 0c0 0 231.722 377.052 231.722 457.753 0 129.925-105.146 275.59-223.686 275.59zM259.851 517.358C129.925 517.358 0 427.615 0 427.615v-83.38s129.925 91.082 259.85 91.082h8.707a185.512 185.512 0 00-3.348 33.486 307.736 307.736 0 004.688 51.568H259.85zm73 140.64a281.952 281.952 0 0068.98 61.95 362.988 362.988 0 01-141.645 33.486C129.926 754.438 0 664.696 0 664.696v-83.38s129.925 88.403 259.85 88.403a230.718 230.718 0 0073-13.395zm0 0"/></svg>