<svg class="icon" viewBox="0 0 1024 1024" xmlns="http://www.w3.org/2000/svg" width="128" height="128"><defs><style/></defs><path d="M512 148.48c201.728 0 366.08 164.352 366.08 366.08S713.728 880.64 512 880.64 145.92 716.8 145.92 514.56 310.272 148.48 512 148.48m0-58.88c-234.496 0-424.96 190.464-424.96 424.96 0 234.496 189.952 424.96 424.96 424.96 234.496 0 424.96-190.464 424.96-424.96C936.96 280.064 746.496 89.6 512 89.6z"/><path d="M512 762.88c-16.384 0-29.184-13.312-29.184-29.184v-263.68c0-16.384 13.312-29.184 29.184-29.184s29.184 13.312 29.184 29.184v263.68c0 15.872-12.8 29.184-29.184 29.184zm0-366.08c-16.384 0-29.184-13.312-29.184-29.184v-58.88c0-16.384 13.312-29.184 29.184-29.184s29.184 13.312 29.184 29.184v58.368c0 16.384-12.8 29.696-29.184 29.696z"/></svg>