<svg class="icon" viewBox="0 0 1024 1024" xmlns="http://www.w3.org/2000/svg" width="128" height="128"><defs><style/></defs><path d="M891.638 544.256l35.533-280.105-263.066-99.83-294.36 140.575-274.912-116.09 38.789 305.612-7.138 45.998 1.977.307L97.915 797.42l289.73 54.333 277.883-52.93 263.64 60.845-37.53-315.412zM387.604 820.49L131.82 772.516l30.668-257.72h-.03l2.314-19.057-32.727-257.884 238.49 100.72 294.952-140.882 228.168 86.59-32.973 259.85 32.83 275.774-227.38-52.47-278.528 53.053zm439.819-120.289c0 16.497-13.374 29.87-29.87 29.87s-29.87-13.373-29.87-29.87c0-7.393 2.775-14.06 7.219-19.282-23.44-17.162-48.2-36.075-57.273-61.993-12.277-35.092 27.71-100.741-11.192-124.006-36.331-21.75-96.01 2.375-117.873-38.41-3.153 1.126-6.492 1.853-10.024 1.853-1.106 0-2.171-.215-3.247-.328-5.652 9.718-9.257 20.705-10.977 32.287-2.376 16.005 2.744 31.652 1.28 47.595-1.556 17.04-7.772 33.495-25.334 39.383-27.371 9.165-106.168-14.223-104.693 28.672.143 4.076-1.813 6.738-4.455 8.305-3.318 12.882-14.91 22.436-28.825 22.436-16.497 0-29.87-13.373-29.87-29.87 0-11.203 6.236-20.839 15.36-25.959-2.755-18.616-.994-37.079-3.165-55.982-3.143-27.197-20.244-42.567-43.192-54.548-22.559-11.776-47.186-23.255-60.713-44.175a29.711 29.711 0 01-11.55 2.324c-16.497 0-29.87-13.373-29.87-29.87s13.373-29.87 29.87-29.87 29.87 13.373 29.87 29.87c0 4.649-1.147 9-3.052 12.933 14.95 29.645 57.313 36.526 81.47 57.498 34.754 30.146 23.285 69.17 30.29 108.472a29.589 29.589 0 0111.755 4.977c14.131-27.843 59.177-21.33 89.743-21.607 10.947-.092 31.242.83 34.376-13.598 3.778-17.368-1.229-34.765-.543-52.255.645-16.302 5.53-32.246 13.701-46.193-4.997-5.335-8.12-12.472-8.12-20.357 0-16.497 13.373-29.87 29.87-29.87s29.87 13.373 29.87 29.87c0 5.09-1.393 9.82-3.635 14.008 17.664 40.95 95.898 8.776 124.518 46.234 26.46 34.652 3.339 70.8 5.028 108.554 1.403 31.242 33.495 53.996 60.406 73.329.942-.092 1.853-.277 2.806-.277 16.548-.02 29.91 13.353 29.91 29.85z"/></svg>