<svg class="icon" viewBox="0 0 1024 1024" xmlns="http://www.w3.org/2000/svg" width="32" height="32"><defs><style/></defs><path d="M1006.528 731.584H595.136a16.96 16.96 0 01-17.024-16.768v-39.552a16.96 16.96 0 0117.024-16.768h411.456c9.28 0 16.832 7.488 16.96 16.768v39.552a16.96 16.96 0 01-17.024 16.768zm0 146.176H595.136a16.96 16.96 0 01-17.024-16.768V821.44a16.96 16.96 0 0117.024-16.768h411.456c9.28 0 16.832 7.488 16.96 16.768v39.488a16.96 16.96 0 01-17.024 16.704v.128zm0 146.176H595.136a16.96 16.96 0 01-17.024-16.768v-39.552a16.96 16.96 0 0117.024-16.768h411.456c9.28 0 16.832 7.424 16.96 16.768v39.424a16.96 16.96 0 01-17.024 16.768v.192zM503.808 652.16v74.176c-119.872 0-217.344-96-217.344-214.016 0-117.952 97.472-213.952 217.344-213.952s217.472 96 217.472 213.952c0 24.96-4.416 49.728-13.056 73.088H624.64a136.408 136.408 0 0021.248-73.088c0-76.992-63.808-139.648-142.08-139.648-78.208 0-141.952 62.656-141.952 139.648 0 77.056 63.68 139.84 141.952 139.84zm-17.92 297.28A17.792 17.792 0 01504 967.168v38.912a17.92 17.92 0 01-17.92 17.664h-70.976a63.104 63.104 0 01-63.68-59.648l-10.432-75.072a417.28 417.28 0 01-87.36-49.472l-71.04 28.544a64.256 64.256 0 01-84.352-24.384L9.344 692.48a62.016 62.016 0 0120.608-84.032l60.8-46.336a374.784 374.784 0 010-99.328l-60.672-46.4a62.016 62.016 0 01-20.8-83.776l88.96-151.552c17.28-29.056 54.08-39.744 84.224-24.448l71.104 28.544a415.424 415.424 0 0187.424-49.536L351.424 60.8a63.104 63.104 0 0163.552-59.776h177.728c34.176 0 62.016 26.048 63.616 59.52l10.368 75.136a412.631 412.631 0 0187.552 49.472l71.104-28.48a64.512 64.512 0 0184.224 24.32L998.4 332.416a62.016 62.016 0 01-20.48 84.032l-60.928 46.272a377.472 377.472 0 010 99.328l30.72 23.36h-111.04l2.56-13.952a315.584 315.584 0 000-118.208l-4.032-22.08 92.672-70.592-79.296-135.232-107.328 45.44-17.6-14.72a338.88 338.88 0 00-104.064-58.88l-21.44-7.68L582.336 75.2h-156.8L409.6 189.44l-21.44 7.68A341.248 341.248 0 00283.904 256l-17.408 14.528-108.224-43.52-78.4 133.44 92.8 70.656-4.096 22.208a321.792 321.792 0 00-5.696 59.008c.128 19.84 1.984 39.68 5.632 59.072l3.968 22.208-92.608 70.656 79.36 135.168 107.264-45.44 17.6 14.592c30.912 25.6 66.176 45.632 104.064 58.88l21.44 7.68 15.808 114.304h60.544z"/></svg>