<svg class="icon" viewBox="0 0 1025 1024" xmlns="http://www.w3.org/2000/svg" width="48.047" height="48"><defs><style/></defs><path d="M512.001 0C229.231 0 0 229.23 0 512.001c0 282.77 229.232 512 512.001 512s512.002-229.23 512.002-512S794.772 0 512 0zm0 959.882c-247.357 0-447.88-200.523-447.88-447.88C64.12 264.641 264.641 64.12 512 64.12s447.881 200.522 447.881 447.881c0 247.358-200.523 447.881-447.88 447.881z"/><path d="M412.335 403.381s16.06-98.832 114.894-87.714c98.833 11.12 76.594 85.244 66.712 100.07-9.884 24.708-101.304 84.007-116.129 119.834-14.825 35.827-13.59 102.539-13.59 102.539h88.95s-4.942-70.418 44.475-100.069c49.417-29.65 133.424-116.127 96.361-198.9-59.299-95.127-117.363-105.01-192.722-102.54-75.36 2.472-154.428 39.533-180.371 154.425 61.77 8.65 91.42 12.355 91.42 12.355zm50.652 304.371h92.655v101.29h-92.655v-101.29z"/></svg>