<svg class="icon" viewBox="0 0 1024 1024" xmlns="http://www.w3.org/2000/svg" width="128" height="128"><defs><style/></defs><path d="M715.9 492.7c12.3-12.3 12.3-32.5 0-44.7L536.2 268.2c-1.1-1.2-2.2-2.3-3.4-3.3l-.3-.3c-11-9.7-27.3-10.3-39.1-2-2.7 1.8-5.1 4-7.2 6.6l-179 178.9c-12.5 12.5-12.5 32.9 0 45.4s32.9 12.5 45.4 0l126-126.1v428.4c0 18.2 14.8 32.9 33 32.9s33-14.7 33-32.9V367.4l125.9 126c12.3 12.3 32.4 12.3 44.7 0l.7-.7z"/><path d="M928.2 63.8H96.3C82.1 63.8 70 73 65.5 85.6c-1.4 3.6-2.1 7.5-2.1 11.5v573.2c0 .6-.1 1.3-.1 1.9 0 18 14.7 32.7 32.7 32.7h191.5c18 0 32.7-14.7 32.7-32.7s-14.7-32.7-32.7-32.7H128.7V129.2h766.8v510.4H736.4c-18 0-32.7 14.7-32.7 32.7s14.7 32.7 32.7 32.7h191.5c3.5 0 6.8-.6 10-1.6 13.3-4.2 23-16.6 23-31.2V96.5c0-18-14.7-32.7-32.7-32.7zM478.6 927.3a33 32.9 0 1066 0 33 32.9 0 10-66 0z"/></svg>