<svg class="icon" viewBox="0 0 1024 1024" xmlns="http://www.w3.org/2000/svg" width="32" height="32"><defs><style/></defs><path d="M787.2 102.4H236.8c-96 0-172.8 76.8-172.8 172.8v473.6c0 96 76.8 172.8 172.8 172.8h550.4c96 0 172.8-76.8 172.8-172.8V275.2c0-96-76.8-172.8-172.8-172.8zm-550.4 64h550.4c57.6 0 108.8 51.2 108.8 108.8v57.6H128v-57.6c0-57.6 51.2-108.8 108.8-108.8zm550.4 691.2H236.8c-57.6 0-108.8-51.2-108.8-108.8v-352h768v352c0 57.6-51.2 108.8-108.8 108.8z"/><path d="M512 524.8H236.8c-19.2 0-32 12.8-32 32s12.8 32 32 32H512c19.2 0 32-12.8 32-32s-12.8-32-32-32zM377.6 678.4H236.8c-19.2 0-32 12.8-32 32s12.8 32 32 32H384c19.2 0 32-12.8 32-32s-19.2-32-38.4-32zm-172.8-416a38.4 38.4 0 1076.8 0 38.4 38.4 0 10-76.8 0zm115.2 0a38.4 38.4 0 1076.8 0 38.4 38.4 0 10-76.8 0zm108.8 0a38.4 38.4 0 1076.8 0 38.4 38.4 0 10-76.8 0z"/></svg>