<svg class="icon" viewBox="0 0 1024 1024" xmlns="http://www.w3.org/2000/svg" width="32" height="32"><defs><style/></defs><path d="M892.1 64.568H128.47c-35.147 0-63.636 28.49-63.636 63.636v286.36c0 35.144 28.49 63.637 63.636 63.637h254.543v-63.636H128.47V128.203H892.1v286.36H701.192V478.2H892.1c35.146 0 63.635-28.493 63.635-63.636V128.203c.001-35.146-28.489-63.635-63.635-63.635zM764.828 573.654H637.557V382.746s-21.879-97.442-95.454-95.457c-73.582 1.991-95.454 95.457-95.454 95.457v318.179l-63.637-63.637s-73.582-16.905-127.271 31.818c-53.696 48.72-31.818 127.272-31.818 127.272l190.908 159.09c5.479-4.102 29.247 14.639 48.137-12.209 18.894-26.844-16.32-51.43-16.32-51.43S298.496 775.496 287.56 764.56c-22.87-33.807 42.754-81.533 63.637-63.636 9.94 8.947 159.089 159.09 159.089 159.09V382.745h63.635v190.908c0 27.837 26.845 63.636 58.663 63.636H753.89c56.674 0 106.393 33.806 106.393 95.45v159.09c0 37.783 63.637 42.757 63.637 0V732.74c-.001-134.23-98.44-159.086-159.09-159.086z"/></svg>